<svg version="1" xmlns="http://www.w3.org/2000/svg" width="1333.333" height="1333.333" viewBox="0 0 1000.000000 1000.000000"><path d="M54.9 224.4c-.1.6-.2 121.1-.3 267.8L54.5 759h15V487.5h375V759h15l-.1-266.8c-.1-146.7-.2-267.2-.3-267.7 0-.6-3.1-1-7.3-1h-7.3v124.3c0 82-.3 124.2-1 124.3-3.3.4-373.5.3-373.6-.1-.1-.3-.3-56.1-.4-124-.1-67.9-.3-123.7-.4-124-.2-1.1-14.1-.7-14.2.4zM540.9 224c-.1.3-.2 120.8-.3 267.7l-.1 267.3h15V500.5c0-142.2.2-258.5.5-258.5.8 0 7.5 9.4 44.6 62 5.7 8 11.6 16.3 13.2 18.5 1.6 2.2 16.1 22.7 32.2 45.5s36.8 52.1 46 65c38.4 54.1 73.6 103.8 77 108.6 1.9 2.8 12.7 18.1 24 34 11.3 15.8 21.3 30 22.2 31.4.9 1.4 25.4 36 54.5 77l52.9 74.5 11.4.3 11.5.3V223.5l-6.5-.1c-3.6 0-7 .2-7.5.5-.8.4-1.1 79.6-1.1 257.8.1 168.7-.3 257.4-.9 257.5-.6.1-9.1-11.3-19.1-25.3-19.8-27.9-91.8-129.6-96.2-135.8-1.5-2.2-10.3-14.6-19.6-27.8-18.3-25.6-22.3-31.4-54.1-76.3-60.5-85.5-76.7-108.3-90.3-127.5-16.9-23.8-28.7-40.4-63.1-89l-24-34H552c-6-.1-11.1.2-11.1.5z"/></svg>